<svg xmlns="http://www.w3.org/2000/svg" xmlns:xlink="http://www.w3.org/1999/xlink" width="640" zoomAndPan="magnify" viewBox="0 0 480 225" height="300" preserveAspectRatio="xMidYMid meet" version="1.0"><defs><clipPath id="52a6b8ae8d"><path d="M 17.679688 58 L 48 58 L 48 136 L 17.679688 136 Z M 17.679688 58 " clip-rule="nonzero"/></clipPath><clipPath id="468f391e5f"><path d="M 53 54.761719 L 115 54.761719 L 115 170.261719 L 53 170.261719 Z M 53 54.761719 " clip-rule="nonzero"/></clipPath><clipPath id="e4e14deea2"><path d="M 118.722656 58.808594 L 269.472656 58.808594 L 269.472656 166.058594 L 118.722656 166.058594 Z M 118.722656 58.808594 " clip-rule="nonzero"/></clipPath><clipPath id="9d9ce427c1"><path d="M 269.703125 58.808594 L 387 58.808594 L 387 166.058594 L 269.703125 166.058594 Z M 269.703125 58.808594 " clip-rule="nonzero"/></clipPath><clipPath id="9a2cf2ead1"><path d="M 385 59 L 462.453125 59 L 462.453125 166 L 385 166 Z M 385 59 " clip-rule="nonzero"/></clipPath></defs><g clip-path="url(#52a6b8ae8d)"><path fill="#ffffff" d="M 47.167969 87.574219 L 47.167969 135.8125 L 47.15625 135.8125 C 30.914062 135.8125 17.738281 122.640625 17.738281 106.398438 L 17.738281 58.140625 L 17.75 58.140625 C 33.992188 58.140625 47.167969 71.332031 47.167969 87.574219 Z M 47.167969 87.574219 " fill-opacity="1" fill-rule="nonzero"/></g><g clip-path="url(#468f391e5f)"><path fill="#ffffff" d="M 110.84375 170.230469 L 68.5625 147.027344 C 58.476562 141.492188 53.058594 130.90625 53.457031 120.140625 L 53.457031 106.808594 C 52.265625 95.390625 57.863281 83.832031 68.5625 77.964844 L 110.84375 54.761719 C 118.65625 68.996094 113.449219 86.875 99.214844 94.6875 L 66.761719 112.496094 L 99.214844 130.304688 C 113.449219 138.117188 118.65625 155.992188 110.84375 170.230469 Z M 110.84375 170.230469 " fill-opacity="1" fill-rule="nonzero"/></g><g clip-path="url(#e4e14deea2)"><path fill="#ffffff" d="M 148.578125 165.246094 C 144.683594 164.171875 141.0625 162.289062 137.972656 159.875 C 133.945312 156.921875 130.859375 153.164062 128.710938 148.601562 C 126.027344 143.097656 124.683594 136.65625 124.683594 129.269531 L 124.550781 69.007812 C 124.550781 65.117188 123.210938 62.03125 120.660156 60.015625 C 119.988281 59.476562 119.449219 59.074219 118.78125 58.808594 C 119.855469 59.074219 121.0625 59.34375 122.40625 59.746094 C 126.296875 60.820312 129.921875 62.699219 133.007812 64.980469 C 136.902344 67.933594 139.988281 71.824219 142.269531 76.390625 C 144.820312 81.894531 146.164062 88.335938 146.164062 95.71875 L 146.164062 155.984375 C 146.164062 157.863281 146.566406 159.609375 147.238281 161.085938 C 147.910156 162.695312 148.847656 164.039062 150.191406 164.980469 C 150.863281 165.515625 151.535156 165.917969 152.070312 166.1875 C 150.992188 166.050781 149.785156 165.648438 148.578125 165.246094 Z M 202.261719 166.1875 L 156.359375 166.1875 C 170.453125 166.1875 182.132812 157.59375 186.964844 145.648438 C 186.425781 146.589844 186.425781 148.605469 186.425781 150.214844 C 186.425781 158.800781 193.273438 166.1875 202.261719 166.1875 Z M 269.644531 166.1875 L 238.90625 166.1875 C 231.523438 166.1875 225.621094 161.757812 222.933594 155.3125 L 207.363281 110.484375 C 205.886719 106.589844 202.664062 105.519531 201.054688 104.980469 L 217.429688 58.808594 L 254.609375 155.3125 C 256.757812 161.757812 262.800781 166.1875 269.644531 166.1875 Z M 269.644531 166.1875 " fill-opacity="1" fill-rule="nonzero"/></g><g clip-path="url(#9d9ce427c1)"><path fill="#ffffff" d="M 269.703125 166.113281 C 285.320312 151.734375 285.164062 131.46875 285.164062 111.160156 C 285.164062 98.992188 284.699219 85.386719 280.941406 73.839844 C 277.183594 62.175781 272.839844 61.359375 269.859375 58.878906 L 309.503906 58.878906 C 306.519531 62.175781 302.179688 67.132812 302.179688 113.832031 C 302.179688 136.777344 301.25 151.773438 317.640625 166.113281 Z M 312.332031 59.035156 C 314.65625 59.035156 317.332031 59.035156 318.261719 59.035156 C 335.121094 59.035156 373.679688 63.878906 373.679688 86.667969 C 373.679688 103.058594 341.824219 117.4375 319.035156 117.4375 C 360.738281 117.4375 355.890625 143.210938 377.441406 160.53125 C 380.074219 162.703125 383.058594 163.980469 386.199219 165.53125 L 386.351562 165.996094 L 334.34375 165.996094 C 338.570312 161.773438 342.601562 159.292969 342.601562 152.433594 C 342.601562 136.816406 322.757812 117.167969 307.332031 117.167969 L 307.332031 117.011719 L 313.261719 117.011719 C 332.136719 117.011719 347.910156 105.773438 347.910156 86.898438 C 347.910156 66.128906 329.8125 59.421875 312.332031 59.421875 Z M 312.332031 59.035156 " fill-opacity="1" fill-rule="nonzero"/></g><g clip-path="url(#9a2cf2ead1)"><path fill="#ffffff" d="M 385.347656 105.539062 C 389.105469 104.457031 392.515625 103.835938 395.65625 103.835938 C 418.597656 103.835938 429.214844 131.3125 450.917969 155.648438 C 453.242188 158.285156 461.382812 164.5625 462.3125 165.957031 L 407.976562 165.957031 C 408.910156 163.128906 415.769531 162.820312 415.769531 151.582031 C 415.769531 133.171875 402.980469 106.625 385.5 105.539062 Z M 400.652344 59.035156 L 446.847656 59.035156 C 442.933594 62.019531 436.851562 63.722656 432.472656 66.050781 C 421.386719 71.980469 409.992188 80.273438 400.925781 88.835938 C 410.03125 77.289062 413.597656 70.894531 400.652344 59.035156 Z M 400.652344 59.035156 " fill-opacity="1" fill-rule="nonzero"/></g></svg>