<svg xmlns="http://www.w3.org/2000/svg" xmlns:xlink="http://www.w3.org/1999/xlink" width="500" zoomAndPan="magnify" viewBox="0 0 375 374.999991" height="500" preserveAspectRatio="xMidYMid meet" version="1.0"><defs><clipPath id="c1aa6a0f86"><path d="M 158 74.828125 L 278 74.828125 L 278 299.828125 L 158 299.828125 Z M 158 74.828125 " clip-rule="nonzero"/></clipPath></defs><rect x="-37.5" width="450" fill="#ffffff" y="-37.499999" height="449.999989" fill-opacity="1"/><rect x="-37.5" width="450" fill="#000000" y="-37.499999" height="449.999989" fill-opacity="1"/><path fill="#ffffff" d="M 146.464844 138.859375 L 146.464844 232.992188 L 146.441406 232.992188 C 114.746094 232.992188 89.03125 207.285156 89.03125 175.59375 L 89.03125 81.421875 L 89.054688 81.421875 C 120.746094 81.421875 146.464844 107.164062 146.464844 138.859375 Z M 146.464844 138.859375 " fill-opacity="1" fill-rule="nonzero"/><g clip-path="url(#c1aa6a0f86)"><path fill="#ffffff" d="M 270.71875 300.152344 L 188.207031 254.875 C 168.523438 244.070312 157.953125 223.414062 158.730469 202.40625 L 158.730469 176.394531 C 156.40625 154.109375 167.332031 131.5625 188.207031 120.105469 L 270.71875 74.828125 C 285.964844 102.609375 275.800781 137.492188 248.019531 152.742188 L 184.695312 187.492188 L 248.019531 222.246094 C 275.800781 237.488281 285.964844 272.371094 270.71875 300.152344 Z M 270.71875 300.152344 " fill-opacity="1" fill-rule="nonzero"/></g></svg>